<svg xmlns="http://www.w3.org/2000/svg" width="311" height="271" viewBox="0 0 311 271">
    <defs>
        <radialGradient id="a" cy="50.002%" r="67.996%" fx="50%" fy="50.002%" gradientTransform="matrix(.60752 0 0 1 .196 0)">
            <stop offset="2.558%" stop-color="#230581"/>
            <stop offset="21.6%" stop-color="#231C8C"/>
            <stop offset="54.84%" stop-color="#243F9C"/>
            <stop offset="82.17%" stop-color="#2454A6"/>
            <stop offset="100%" stop-color="#245CAA"/>
        </radialGradient>
        <linearGradient id="b" x1="6.191%" x2="94.643%" y1="25.793%" y2="73.537%">
            <stop offset="0%" stop-color="#230581"/>
            <stop offset="23.74%" stop-color="#22057E"/>
            <stop offset="40.85%" stop-color="#200575"/>
            <stop offset="55.87%" stop-color="#1B0465"/>
            <stop offset="56.68%" stop-color="#1B0464"/>
            <stop offset="63.91%" stop-color="#19045C"/>
            <stop offset="75.29%" stop-color="#130345"/>
            <stop offset="89.33%" stop-color="#090121"/>
            <stop offset="100%"/>
        </linearGradient>
        <linearGradient id="c" x1="50.82%" x2="-60.64%" y1="62.91%" y2="10.97%">
            <stop offset="0%" stop-color="#03C6E4"/>
            <stop offset="12.13%" stop-color="#00C6E3"/>
            <stop offset="100%" stop-color="#46C1FD"/>
        </linearGradient>
        <radialGradient id="d" cx="98.353%" cy=".296%" r="240.393%" fx="98.353%" fy=".296%" gradientTransform="matrix(-.63395 0 0 -1 1.607 .006)">
            <stop offset="0%" stop-opacity=".098"/>
            <stop offset="38.83%" stop-opacity=".471"/>
            <stop offset="64.05%" stop-opacity=".304"/>
            <stop offset="100%" stop-opacity="0"/>
        </radialGradient>
        <radialGradient id="e" cx="98.388%" cy=".352%" r="240.393%" fx="98.388%" fy=".352%" gradientTransform="matrix(-.63395 0 0 -1 1.608 .007)">
            <stop offset="0%" stop-opacity=".098"/>
            <stop offset="38.83%" stop-opacity=".471"/>
            <stop offset="64.05%" stop-opacity=".304"/>
            <stop offset="100%" stop-opacity="0"/>
        </radialGradient>
        <radialGradient id="f" cx="98.399%" cy=".219%" r="251.597%" fx="98.399%" fy=".219%" gradientTransform="matrix(-.59592 0 0 -1 1.57 .004)">
            <stop offset="0%" stop-opacity=".098"/>
            <stop offset="38.83%" stop-opacity=".471"/>
            <stop offset="64.05%" stop-opacity=".304"/>
            <stop offset="100%" stop-opacity="0"/>
        </radialGradient>
        <linearGradient id="g" x1="1.159%" x2="102.82%" y1="3.717%" y2="100.654%">
            <stop offset="0%" stop-color="#FFF"/>
            <stop offset="2.099%" stop-color="#F3FEFE"/>
            <stop offset="11.56%" stop-color="#C3FAFA"/>
            <stop offset="21.57%" stop-color="#99F6F7"/>
            <stop offset="31.95%" stop-color="#75F2F4"/>
            <stop offset="42.81%" stop-color="#58F0F2"/>
            <stop offset="54.32%" stop-color="#41EEF0"/>
            <stop offset="66.77%" stop-color="#31ECEF"/>
            <stop offset="80.84%" stop-color="#28EBEE"/>
            <stop offset="100%" stop-color="#25EBEE"/>
        </linearGradient>
        <linearGradient id="h" x1="145.673%" x2="-29.512%" y1="63.706%" y2="38.869%">
            <stop offset=".743%" stop-color="#245CAA"/>
            <stop offset="20.37%" stop-color="#2764B2"/>
            <stop offset="20.8%" stop-color="#2764B2"/>
            <stop offset="41.21%" stop-color="#2B71BF"/>
            <stop offset="78.8%" stop-color="#3793E0"/>
            <stop offset="100%" stop-color="#3FA9F5"/>
        </linearGradient>
        <linearGradient id="i" x1="133.438%" x2="-50.982%" y1="37.08%" y2="65.651%">
            <stop offset="2.558%" stop-color="#230581"/>
            <stop offset="25.31%" stop-color="#231488"/>
            <stop offset="69.07%" stop-color="#243C9B"/>
            <stop offset="100%" stop-color="#245CAA"/>
        </linearGradient>
        <linearGradient id="j" x1="1.132%" x2="102.856%" y1="3.683%" y2="100.575%">
            <stop offset=".743%" stop-color="#245CAA"/>
            <stop offset="20.37%" stop-color="#2764B2"/>
            <stop offset="20.8%" stop-color="#2764B2"/>
            <stop offset="41.21%" stop-color="#2B71BF"/>
            <stop offset="78.8%" stop-color="#3793E0"/>
            <stop offset="100%" stop-color="#3FA9F5"/>
        </linearGradient>
        <linearGradient id="k" x1=".727%" x2="108.216%" y1="-17.436%" y2="129.126%">
            <stop offset="0%" stop-color="#FFF"/>
            <stop offset="2.099%" stop-color="#F3FEFE"/>
            <stop offset="11.56%" stop-color="#C3FAFA"/>
            <stop offset="21.57%" stop-color="#99F6F7"/>
            <stop offset="31.95%" stop-color="#75F2F4"/>
            <stop offset="42.81%" stop-color="#58F0F2"/>
            <stop offset="54.32%" stop-color="#41EEF0"/>
            <stop offset="66.77%" stop-color="#31ECEF"/>
            <stop offset="80.84%" stop-color="#28EBEE"/>
            <stop offset="100%" stop-color="#25EBEE"/>
        </linearGradient>
        <linearGradient id="l" x1="-33.706%" x2="111.192%" y1="74.409%" y2="32.232%">
            <stop offset=".743%" stop-color="#245CAA"/>
            <stop offset="31.44%" stop-color="#243C9B"/>
            <stop offset="74.87%" stop-color="#231488"/>
            <stop offset="97.44%" stop-color="#230581"/>
        </linearGradient>
        <linearGradient id="m" x1="-30.818%" x2="128.483%" y1="19.71%" y2="79.164%">
            <stop offset="0%" stop-color="#3FA9F5"/>
            <stop offset="21.54%" stop-color="#3793E0"/>
            <stop offset="59.72%" stop-color="#2B71BF"/>
            <stop offset="80.45%" stop-color="#2764B2"/>
            <stop offset="80.85%" stop-color="#2764B2"/>
            <stop offset="99.26%" stop-color="#245CAA"/>
        </linearGradient>
        <linearGradient id="n" x1=".685%" x2="108.196%" y1="-17.362%" y2="129.063%">
            <stop offset=".743%" stop-color="#245CAA"/>
            <stop offset="20.37%" stop-color="#2764B2"/>
            <stop offset="20.8%" stop-color="#2764B2"/>
            <stop offset="41.21%" stop-color="#2B71BF"/>
            <stop offset="78.8%" stop-color="#3793E0"/>
            <stop offset="100%" stop-color="#3FA9F5"/>
        </linearGradient>
        <linearGradient id="o" x1="14.932%" x2="81.654%" y1="10.487%" y2="85.124%">
            <stop offset="0%" stop-color="#FFF"/>
            <stop offset="2.099%" stop-color="#F3FEFE"/>
            <stop offset="11.56%" stop-color="#C3FAFA"/>
            <stop offset="21.57%" stop-color="#99F6F7"/>
            <stop offset="31.95%" stop-color="#75F2F4"/>
            <stop offset="42.81%" stop-color="#58F0F2"/>
            <stop offset="54.32%" stop-color="#41EEF0"/>
            <stop offset="66.77%" stop-color="#31ECEF"/>
            <stop offset="80.84%" stop-color="#28EBEE"/>
            <stop offset="100%" stop-color="#25EBEE"/>
        </linearGradient>
        <linearGradient id="p" x1="110.262%" x2="-20.255%" y1="67.464%" y2="29.648%">
            <stop offset=".743%" stop-color="#245CAA"/>
            <stop offset="20.37%" stop-color="#2764B2"/>
            <stop offset="20.8%" stop-color="#2764B2"/>
            <stop offset="41.21%" stop-color="#2B71BF"/>
            <stop offset="78.8%" stop-color="#3793E0"/>
            <stop offset="100%" stop-color="#3FA9F5"/>
        </linearGradient>
        <linearGradient id="q" x1="97.292%" x2="-46.542%" y1="31.703%" y2="86.965%">
            <stop offset="2.558%" stop-color="#230581"/>
            <stop offset="25.13%" stop-color="#231488"/>
            <stop offset="68.56%" stop-color="#243C9B"/>
            <stop offset="99.26%" stop-color="#245CAA"/>
        </linearGradient>
        <linearGradient id="r" x1=".008%" x2="99.983%" y1="50.024%" y2="50.024%">
            <stop offset=".743%" stop-color="#245CAA"/>
            <stop offset="20.37%" stop-color="#2764B2"/>
            <stop offset="20.8%" stop-color="#2764B2"/>
            <stop offset="41.21%" stop-color="#2B71BF"/>
            <stop offset="78.8%" stop-color="#3793E0"/>
            <stop offset="100%" stop-color="#3FA9F5"/>
        </linearGradient>
        <linearGradient id="s" x1="-.625%" x2="99.922%" y1="50.063%" y2="50.063%">
            <stop offset="1.073%" stop-color="#2493C4"/>
            <stop offset="29.78%" stop-color="#2496C5"/>
            <stop offset="49.19%" stop-color="#249FCA"/>
            <stop offset="65.86%" stop-color="#24AED1"/>
            <stop offset="80.97%" stop-color="#25C3DB"/>
            <stop offset="94.91%" stop-color="#25DFE8"/>
            <stop offset="100%" stop-color="#25EBEE"/>
        </linearGradient>
        <linearGradient id="t" x1="-.208%" x2="100.136%" y1="50.096%" y2="50.096%">
            <stop offset="1.073%" stop-color="#2493C4"/>
            <stop offset="29.78%" stop-color="#2496C5"/>
            <stop offset="49.19%" stop-color="#249FCA"/>
            <stop offset="65.86%" stop-color="#24AED1"/>
            <stop offset="80.97%" stop-color="#25C3DB"/>
            <stop offset="94.91%" stop-color="#25DFE8"/>
            <stop offset="100%" stop-color="#25EBEE"/>
        </linearGradient>
        <linearGradient id="u" x1="-.342%" x2="99.989%" y1="49.909%" y2="49.909%">
            <stop offset="0%" stop-color="#230581"/>
            <stop offset="41.4%" stop-color="#15034E"/>
            <stop offset="100%"/>
        </linearGradient>
        <linearGradient id="v" x1="6.834%" x2="81.269%" y1="-14.871%" y2="92.087%">
            <stop offset="0%" stop-color="#A642C9"/>
            <stop offset="15.26%" stop-color="#A140C6"/>
            <stop offset="33.38%" stop-color="#9339BE"/>
            <stop offset="52.96%" stop-color="#7B2EB1"/>
            <stop offset="73.57%" stop-color="#591E9F"/>
            <stop offset="94.78%" stop-color="#2F0A87"/>
            <stop offset="100%" stop-color="#230581"/>
        </linearGradient>
        <linearGradient id="w" x1="-1.282%" x2="117.72%" y1="8.321%" y2="106.068%">
            <stop offset="0%" stop-color="#230581"/>
            <stop offset="16.7%" stop-color="#441493"/>
            <stop offset="41.27%" stop-color="#6F28AB"/>
            <stop offset="60.5%" stop-color="#8934BA"/>
            <stop offset="71.88%" stop-color="#9339BF"/>
            <stop offset="86.99%" stop-color="#A140C6"/>
            <stop offset="100%" stop-color="#A642C9"/>
        </linearGradient>
        <linearGradient id="x" x1="21.68%" x2="110.175%" y1="3%" y2="108.336%">
            <stop offset="0%" stop-color="#A642C9"/>
            <stop offset="14.21%" stop-color="#A03FC6"/>
            <stop offset="33.24%" stop-color="#8F37BC"/>
            <stop offset="55.01%" stop-color="#732AAD"/>
            <stop offset="78.62%" stop-color="#4C1898"/>
            <stop offset="100%" stop-color="#230581"/>
        </linearGradient>
        <linearGradient id="y" x1="23.723%" x2="245.042%" y1="51.273%" y2="46.437%">
            <stop offset="0%" stop-color="#230581"/>
            <stop offset="7.19%" stop-color="#3E1190"/>
            <stop offset="17.63%" stop-color="#5E20A1"/>
            <stop offset="28.98%" stop-color="#782DB0"/>
            <stop offset="41.39%" stop-color="#8D36BB"/>
            <stop offset="55.37%" stop-color="#9B3DC3"/>
            <stop offset="72.26%" stop-color="#A341C8"/>
            <stop offset="100%" stop-color="#A642C9"/>
        </linearGradient>
        <linearGradient id="z" x1="-208.51%" x2="114.249%" y1="61.622%" y2="47.531%">
            <stop offset="0%" stop-color="#230581"/>
            <stop offset="7.19%" stop-color="#3E1190"/>
            <stop offset="17.63%" stop-color="#5E20A1"/>
            <stop offset="28.98%" stop-color="#782DB0"/>
            <stop offset="41.39%" stop-color="#8D36BB"/>
            <stop offset="55.37%" stop-color="#9B3DC3"/>
            <stop offset="72.26%" stop-color="#A341C8"/>
            <stop offset="100%" stop-color="#A642C9"/>
        </linearGradient>
        <linearGradient id="A" x1=".074%" x2="99.972%" y1="49.924%" y2="49.924%">
            <stop offset="0%" stop-color="#A642C9"/>
            <stop offset="15.26%" stop-color="#A140C6"/>
            <stop offset="33.38%" stop-color="#9339BE"/>
            <stop offset="52.96%" stop-color="#7B2EB1"/>
            <stop offset="73.57%" stop-color="#591E9F"/>
            <stop offset="94.78%" stop-color="#2F0A87"/>
            <stop offset="100%" stop-color="#230581"/>
        </linearGradient>
        <linearGradient id="B" x1="-14.977%" x2="71.007%" y1="97.418%" y2="34.477%">
            <stop offset="0%" stop-color="#A642C9"/>
            <stop offset="15.26%" stop-color="#A140C6"/>
            <stop offset="33.38%" stop-color="#9339BE"/>
            <stop offset="52.96%" stop-color="#7B2EB1"/>
            <stop offset="73.57%" stop-color="#591E9F"/>
            <stop offset="94.78%" stop-color="#2F0A87"/>
            <stop offset="100%" stop-color="#230581"/>
        </linearGradient>
        <linearGradient id="C" x1="-.465%" x2="100.264%" y1="49.956%" y2="49.956%">
            <stop offset="0%" stop-color="#A642C9"/>
            <stop offset="15.26%" stop-color="#A140C6"/>
            <stop offset="33.38%" stop-color="#9339BE"/>
            <stop offset="52.96%" stop-color="#7B2EB1"/>
            <stop offset="73.57%" stop-color="#591E9F"/>
            <stop offset="94.78%" stop-color="#2F0A87"/>
            <stop offset="100%" stop-color="#230581"/>
        </linearGradient>
        <linearGradient id="D" x1="42.419%" x2="109.4%" y1="55.259%" y2="-57.217%">
            <stop offset="0%" stop-color="#A642C9"/>
            <stop offset="27.74%" stop-color="#A341C8"/>
            <stop offset="44.63%" stop-color="#9B3DC3"/>
            <stop offset="58.61%" stop-color="#8D36BB"/>
            <stop offset="71.02%" stop-color="#782DB0"/>
            <stop offset="82.37%" stop-color="#5E20A1"/>
            <stop offset="92.81%" stop-color="#3E1190"/>
            <stop offset="100%" stop-color="#230581"/>
        </linearGradient>
        <linearGradient id="E" x1="25.433%" x2="138.704%" y1="63.416%" y2="1.557%">
            <stop offset="0%" stop-color="#A642C9"/>
            <stop offset="19.68%" stop-color="#9238BE"/>
            <stop offset="59.9%" stop-color="#5D20A1"/>
            <stop offset="100%" stop-color="#230581"/>
        </linearGradient>
        <linearGradient id="F" x1=".039%" x2="100.002%" y1="49.987%" y2="49.987%">
            <stop offset="0%" stop-color="#A642C9"/>
            <stop offset="2.075%" stop-color="#993CC2"/>
            <stop offset="7.992%" stop-color="#7A2DB1"/>
            <stop offset="14.7%" stop-color="#5E21A2"/>
            <stop offset="22.27%" stop-color="#481696"/>
            <stop offset="31.11%" stop-color="#370F8C"/>
            <stop offset="42.05%" stop-color="#2C0986"/>
            <stop offset="57.4%" stop-color="#250682"/>
            <stop offset="100%" stop-color="#230581"/>
        </linearGradient>
        <linearGradient id="G" x1="100.041%" x2=".057%" y1="49.976%" y2="49.976%">
            <stop offset="0%" stop-color="#A642C9"/>
            <stop offset="15.26%" stop-color="#A140C6"/>
            <stop offset="33.38%" stop-color="#9339BE"/>
            <stop offset="52.96%" stop-color="#7B2EB1"/>
            <stop offset="73.57%" stop-color="#591E9F"/>
            <stop offset="94.78%" stop-color="#2F0A87"/>
            <stop offset="100%" stop-color="#230581"/>
        </linearGradient>
        <linearGradient id="H" x1="110.518%" x2="-38.426%" y1="26.952%" y2="83.543%">
            <stop offset="0%" stop-color="#230581"/>
            <stop offset="5.225%" stop-color="#2F0A87"/>
            <stop offset="26.43%" stop-color="#591E9F"/>
            <stop offset="47.04%" stop-color="#7B2EB1"/>
            <stop offset="66.62%" stop-color="#9339BE"/>
            <stop offset="84.74%" stop-color="#A140C6"/>
            <stop offset="100%" stop-color="#A642C9"/>
        </linearGradient>
        <linearGradient id="I" x1="126.687%" x2="38.523%" y1="15.382%" y2="49.902%">
            <stop offset="0%" stop-color="#A642C9"/>
            <stop offset="15.26%" stop-color="#A140C6"/>
            <stop offset="33.38%" stop-color="#9339BE"/>
            <stop offset="52.96%" stop-color="#7B2EB1"/>
            <stop offset="73.57%" stop-color="#591E9F"/>
            <stop offset="94.78%" stop-color="#2F0A87"/>
            <stop offset="100%" stop-color="#230581"/>
        </linearGradient>
        <linearGradient id="J" x1="100.035%" x2="-.206%" y1="50.025%" y2="50.025%">
            <stop offset="0%" stop-color="#230581"/>
            <stop offset="5.225%" stop-color="#2F0A87"/>
            <stop offset="26.43%" stop-color="#591E9F"/>
            <stop offset="47.04%" stop-color="#7B2EB1"/>
            <stop offset="66.62%" stop-color="#9339BE"/>
            <stop offset="84.74%" stop-color="#A140C6"/>
            <stop offset="100%" stop-color="#A642C9"/>
        </linearGradient>
        <linearGradient id="K" x1="100.215%" x2=".258%" y1="49.834%" y2="49.834%">
            <stop offset="0%" stop-color="#230581"/>
            <stop offset="5.225%" stop-color="#2F0A87"/>
            <stop offset="26.43%" stop-color="#591E9F"/>
            <stop offset="47.04%" stop-color="#7B2EB1"/>
            <stop offset="66.62%" stop-color="#9339BE"/>
            <stop offset="84.74%" stop-color="#A140C6"/>
            <stop offset="100%" stop-color="#A642C9"/>
        </linearGradient>
        <linearGradient id="L" x1="99.769%" x2="-.139%" y1="49.785%" y2="49.785%">
            <stop offset="0%" stop-color="#A642C9"/>
            <stop offset="15.26%" stop-color="#A140C6"/>
            <stop offset="33.38%" stop-color="#9339BE"/>
            <stop offset="52.96%" stop-color="#7B2EB1"/>
            <stop offset="73.57%" stop-color="#591E9F"/>
            <stop offset="94.78%" stop-color="#2F0A87"/>
            <stop offset="100%" stop-color="#230581"/>
        </linearGradient>
    </defs>
    <g fill="none" fill-rule="evenodd">
        <path fill="url(#a)" fill-rule="nonzero" d="M172.942 220.78l115.586-67.227-121.335-77.107-116.245 71.99z" opacity=".27" transform="translate(20.936 50)"/>
        <path fill="url(#b)" fill-rule="nonzero" d="M289.187 136.923c.833 0 .833-1.323 0-1.323-.878 0-.878 1.323 0 1.323z" transform="translate(20.936 50)"/>
        <path stroke="#EF663A" stroke-dasharray="2,4" stroke-linecap="round" stroke-linejoin="round" stroke-width="1.5" d="M265.845 102.802L21.023 246.077M67.056 97.685l95.182 54.919M67.056 50.309v46.758M21.594 197.863v46.758M266.196 60.675v41.421"/>
        <path stroke="url(#c)" d="M26.373 14.998v.4" transform="translate(20.936 50)"/>
        <g>
            <path fill="url(#d)" fill-rule="nonzero" d="M41.153 146.08l3.21-1.886a1.711 1.711 0 0 1 1.714 0l4.705 2.763c1.099.659 1.099 2.238 0 2.94l-24.05 14.476c-.528.307-1.187.307-1.759 0l-5.1-2.983c-1.1-.658-1.1-2.281 0-2.94l21.28-12.37z" opacity=".3" transform="translate(88.717 53)"/>
            <path fill="url(#e)" fill-rule="nonzero" d="M108.159 133.49l3.21-1.886a1.711 1.711 0 0 1 1.714 0l4.704 2.763c1.1.658 1.1 2.238 0 2.94l-24.05 14.476c-.527.307-1.187.307-1.758 0l-5.1-2.983c-1.1-.658-1.1-2.281 0-2.94l21.28-12.37z" opacity=".3" transform="translate(88.717 53)"/>
            <path fill="url(#f)" fill-rule="nonzero" d="M104.51 106.687s4.264-2.632 5.583-3.246c1.055-.483 2.99-.746 4.573 0 1.275.614 3.913 2.807-.264 5.264-4.265 2.5-34.25 19.784-34.25 19.784s-2.638 1.097-4.66 1.097c-2.639 0-4.705-2.895-2.639-4.43 2.155-1.668 31.656-18.47 31.656-18.47z" opacity=".25" transform="translate(88.717 53)"/>
            <path stroke="#EF663A" stroke-dasharray="8,8" stroke-linecap="round" stroke-linejoin="round" stroke-width="2" d="M157.745 164.205v-36.454M136.465 140.648v-30.093"/>
            <g fill="#25EBEE" fill-rule="nonzero">
                <path d="M156.602 104.545c0 .263-.176.526-.396.658-.22.131-.395.044-.395-.22 0-.263.175-.526.395-.658.22-.131.396 0 .396.22zM158.097 103.667c0 .264-.176.527-.396.658-.22.132-.396.044-.396-.219s.176-.526.396-.658c.22-.132.396 0 .396.22zM159.592 102.79c0 .263-.176.526-.396.658-.22.132-.396.044-.396-.22 0-.262.176-.526.396-.657.22-.132.396 0 .396.22zM161.087 101.913c0 .263-.176.526-.396.658-.22.131-.396.044-.396-.22 0-.263.176-.526.396-.658.22-.131.396 0 .396.22zM162.581 101.035c0 .264-.175.527-.395.658-.22.132-.396.044-.396-.219s.176-.526.396-.658c.22-.132.395 0 .395.22zM164.076 100.158c0 .263-.176.526-.395.658-.22.132-.396.044-.396-.22 0-.263.176-.526.396-.657.263-.132.395 0 .395.219zM165.615 99.28c0 .264-.176.527-.395.659-.22.131-.396.044-.396-.22 0-.263.176-.526.396-.658.22-.131.395 0 .395.22zM155.239 106.694c0 .264-.176.527-.396.658-.22.132-.395.044-.395-.219s.175-.526.395-.658c.22-.132.396-.044.396.22zM156.602 107.308c0 .264-.176.527-.396.658-.22.132-.395.044-.395-.219s.175-.526.395-.658c.22-.131.396-.044.396.22zM158.097 106.431c0 .263-.176.527-.396.658-.22.132-.396.044-.396-.22 0-.262.176-.526.396-.657.22-.132.396-.044.396.22zM159.636 105.554c0 .263-.176.526-.396.658-.22.131-.396.044-.396-.22 0-.263.176-.526.396-.658.22-.131.396-.043.396.22zM161.13 104.676c0 .264-.175.527-.395.658-.22.132-.396.044-.396-.219s.176-.526.396-.658c.22-.132.396-.044.396.22zM162.625 103.799c0 .263-.175.526-.395.658-.22.132-.396.044-.396-.22 0-.262.176-.526.396-.657.22-.132.395-.044.395.219zM164.12 102.922c0 .263-.176.526-.395.658-.22.131-.396.044-.396-.22 0-.263.176-.526.396-.658.22-.131.395-.044.395.22zM165.615 102.044c0 .264-.176.527-.395.658-.22.132-.396.044-.396-.219s.176-.526.396-.658c.22-.132.395-.044.395.22zM156.602 105.949c0 .263-.176.526-.396.658-.22.131-.395.043-.395-.22s.175-.526.395-.658c.22-.131.396-.044.396.22zM158.097 105.071c0 .263-.176.527-.396.658-.22.132-.396.044-.396-.22 0-.262.176-.526.396-.657.22-.132.396-.044.396.22zM159.636 104.194c0 .263-.176.526-.396.658-.22.131-.396.044-.396-.22 0-.263.176-.526.396-.657.22-.132.396-.044.396.219zM161.13 103.316c0 .264-.175.527-.395.659-.22.131-.396.043-.396-.22s.176-.526.396-.658c.22-.131.396-.044.396.22zM162.625 102.44c0 .262-.175.526-.395.657-.22.132-.396.044-.396-.22 0-.262.176-.526.396-.657.22-.132.395-.044.395.22zM164.12 101.562c0 .263-.176.526-.395.658-.22.131-.396.044-.396-.22 0-.263.176-.526.396-.658.22-.131.395-.043.395.22zM165.615 100.684c0 .264-.176.527-.395.658-.22.132-.396.044-.396-.219s.176-.526.396-.658c.22-.132.395-.044.395.22zM167.11 99.807c0 .263-.176.526-.396.658-.22.132-.395.044-.395-.22 0-.262.176-.526.395-.657.22-.132.396-.044.396.22z"/>
            </g>
            <path fill="url(#g)" fill-rule="nonzero" stroke="#FFF" stroke-width=".5" d="M60.19 36.235l30.866-17.767L59.443.22 28.886 17.81z" transform="translate(88.717 53)"/>
            <path fill="url(#h)" fill-rule="nonzero" stroke="#FFF" stroke-linecap="round" stroke-width=".5" d="M28.886 112.477l30.293 17.635.616-94.14-30.909-18.074z" transform="translate(88.717 53)"/>
            <path fill="url(#i)" fill-rule="nonzero" stroke="#FFF" stroke-linecap="round" stroke-width=".5" d="M59.487 130.814l31.437-18.337V18.25L59.839 36.191z" transform="translate(88.717 53)"/>
            <g fill="#25EBEE" fill-rule="nonzero">
                <path d="M167.374 82.61c0 .264-.176.527-.396.659-.22.131-.396.044-.396-.22 0-.263.176-.526.396-.658.22-.131.396 0 .396.22zM168.913 81.733c0 .264-.176.527-.396.658-.22.132-.396.044-.396-.219s.176-.526.396-.658c.22-.131.396 0 .396.22zM170.408 80.856c0 .263-.176.527-.396.658-.22.132-.396.044-.396-.22 0-.262.176-.526.396-.657.22-.132.396 0 .396.22zM171.902 79.979c0 .263-.175.526-.395.658-.22.131-.396.044-.396-.22 0-.263.176-.526.396-.658.22-.131.395 0 .395.22zM173.397 79.101c0 .264-.176.527-.395.658-.22.132-.396.044-.396-.219s.176-.526.396-.658c.22-.132.395 0 .395.22zM174.892 78.224c0 .263-.176.526-.395.658-.22.132-.396.044-.396-.22 0-.262.176-.526.396-.657.22-.132.395 0 .395.219zM176.387 77.347c0 .263-.176.526-.396.658-.22.131-.395.044-.395-.22 0-.263.176-.526.395-.658.264-.131.396 0 .396.22zM166.055 84.76c0 .264-.176.527-.396.658-.22.132-.396.044-.396-.219s.176-.526.396-.658c.22-.132.396-.044.396.22zM167.418 85.375c0 .263-.176.526-.396.658-.22.131-.396.043-.396-.22s.176-.526.396-.658c.22-.131.396-.044.396.22zM168.913 84.497c0 .263-.176.527-.396.658-.22.132-.396.044-.396-.22 0-.262.176-.526.396-.657.22-.132.396-.044.396.22zM170.408 83.62c0 .263-.176.526-.396.658-.22.131-.396.044-.396-.22 0-.263.176-.526.396-.658.22-.131.396-.043.396.22zM171.946 82.742c0 .264-.175.527-.395.658-.22.132-.396.044-.396-.219s.176-.526.396-.658c.22-.132.395-.044.395.22zM173.441 81.865c0 .263-.176.526-.395.658-.22.132-.396.044-.396-.22 0-.262.176-.526.396-.657.22-.132.395-.044.395.22zM174.936 80.988c0 .263-.176.526-.396.658-.22.131-.395.044-.395-.22 0-.263.176-.526.395-.658.22-.131.396-.043.396.22zM176.431 80.11c0 .264-.176.527-.396.658-.22.132-.395.044-.395-.219s.176-.526.395-.658c.22-.132.396-.044.396.22zM167.418 84.015c0 .263-.176.526-.396.658-.22.131-.396.043-.396-.22s.176-.526.396-.658c.22-.131.396-.044.396.22zM168.913 83.137c0 .263-.176.527-.396.658-.22.132-.396.044-.396-.22 0-.262.176-.525.396-.657.22-.132.396-.044.396.22zM170.408 82.26c0 .263-.176.526-.396.658-.22.132-.396.044-.396-.22 0-.263.176-.526.396-.657.22-.132.396-.044.396.219zM171.946 81.383c0 .263-.175.526-.395.658-.22.131-.396.043-.396-.22s.176-.526.396-.658c.22-.131.395-.044.395.22zM173.441 80.505c0 .263-.176.527-.395.658-.22.132-.396.044-.396-.22 0-.262.176-.526.396-.657.22-.132.395-.044.395.22zM174.936 79.628c0 .263-.176.526-.396.658-.22.131-.395.044-.395-.22 0-.263.176-.526.395-.658.22-.131.396-.043.396.22zM176.431 78.75c0 .264-.176.527-.396.658-.22.132-.395.044-.395-.219s.176-.526.395-.658c.22-.131.396-.044.396.22zM177.926 77.873c0 .263-.176.527-.396.658-.22.132-.395.044-.395-.22 0-.262.175-.526.395-.657.22-.132.396-.044.396.22z"/>
            </g>
            <g fill="#25EBEE" fill-rule="nonzero">
                <path d="M167.286 91.253c0 .263-.176.526-.396.658-.22.131-.395.044-.395-.22 0-.263.175-.526.395-.658.22-.131.396-.043.396.22zM168.78 90.375c0 .264-.175.527-.395.658-.22.132-.396.044-.396-.219s.176-.526.396-.658c.22-.131.396-.044.396.22zM170.32 89.498c0 .263-.176.527-.396.658-.22.132-.396.044-.396-.22 0-.262.176-.526.396-.657.22-.132.396-.044.396.22zM171.815 88.62c0 .264-.176.527-.396.659-.22.131-.396.044-.396-.22 0-.263.176-.526.396-.658.22-.131.396-.043.396.22zM173.31 87.743c0 .264-.176.527-.396.658-.22.132-.396.044-.396-.219s.176-.526.396-.658c.22-.132.395-.044.395.22zM174.804 86.866c0 .263-.176.526-.395.658-.22.132-.396.044-.396-.22 0-.263.176-.526.396-.657.22-.132.395-.044.395.219zM176.3 85.989c0 .263-.177.526-.397.658-.22.131-.395.044-.395-.22 0-.263.176-.526.395-.658.22-.131.396-.044.396.22zM165.967 93.402c0 .264-.176.527-.396.658-.22.132-.395.044-.395-.219s.175-.526.395-.658c.22-.132.396-.044.396.22zM167.33 94.016c0 .264-.176.527-.396.659-.22.131-.395.043-.395-.22s.175-.526.395-.658c.22-.131.396-.044.396.22zM168.825 93.14c0 .262-.176.526-.396.657-.22.132-.396.044-.396-.22 0-.262.176-.526.396-.657.22-.132.396-.044.396.22zM170.32 92.262c0 .263-.176.526-.396.658-.22.131-.396.044-.396-.22 0-.263.176-.526.396-.658.22-.131.396-.043.396.22zM171.815 91.384c0 .264-.176.527-.396.658-.22.132-.396.044-.396-.219s.176-.526.396-.658c.22-.132.396-.044.396.22zM173.31 90.507c0 .263-.176.526-.396.658-.22.132-.396.044-.396-.22 0-.262.176-.526.396-.657.22-.132.395-.044.395.22zM174.848 89.63c0 .263-.176.526-.395.658-.22.131-.396.044-.396-.22 0-.263.176-.526.396-.658.22-.131.395-.044.395.22zM176.343 88.752c0 .264-.176.527-.396.658-.22.132-.395.044-.395-.219s.176-.526.395-.658c.22-.132.396-.044.396.22zM167.33 92.613c0 .263-.176.526-.396.658-.22.131-.395.044-.395-.22 0-.263.175-.526.395-.658.22-.087.396 0 .396.22zM168.825 91.735c0 .264-.176.527-.396.658-.22.132-.396.044-.396-.219s.176-.526.396-.658c.22-.088.396 0 .396.22zM170.32 90.858c0 .263-.176.526-.396.658-.22.132-.396.044-.396-.22 0-.263.176-.526.396-.657.22-.088.396 0 .396.219zM171.815 89.98c0 .264-.176.527-.396.659-.22.131-.396.044-.396-.22 0-.263.176-.526.396-.658.22-.087.396 0 .396.22zM173.31 89.103c0 .263-.176.527-.396.658-.22.132-.396.044-.396-.219s.176-.526.396-.658c.22-.088.395 0 .395.22zM174.848 88.226c0 .263-.176.526-.395.658-.22.132-.396.044-.396-.22 0-.263.176-.526.396-.657.22-.088.395 0 .395.219zM176.343 87.349c0 .263-.176.526-.396.658-.22.131-.395.043-.395-.22s.176-.526.395-.658c.22-.131.396 0 .396.22zM177.838 86.471c0 .263-.176.527-.396.658-.22.132-.395.044-.395-.22 0-.262.175-.526.395-.657.22-.132.396 0 .396.22z"/>
            </g>
            <g fill="#25EBEE" fill-rule="nonzero">
                <path d="M167.682 99.675c0 .264-.176.527-.396.658-.22.132-.396.044-.396-.219s.176-.526.396-.658c.22-.131.396-.044.396.22zM169.177 98.798c0 .263-.176.527-.396.658-.22.132-.396.044-.396-.22 0-.262.176-.526.396-.657.22-.132.396-.044.396.22zM170.671 97.92c0 .264-.175.527-.395.659-.22.131-.396.044-.396-.22 0-.263.176-.526.396-.658.22-.131.395-.043.395.22zM172.21 97.043c0 .264-.176.527-.395.658-.22.132-.396.044-.396-.219s.176-.526.396-.658c.22-.132.395-.044.395.22zM173.705 96.166c0 .263-.176.526-.396.658-.22.132-.395.044-.395-.22 0-.263.176-.526.395-.657.22-.132.396-.044.396.219zM175.2 95.289c0 .263-.176.526-.396.658-.22.131-.395.044-.395-.22 0-.263.175-.526.395-.658.22-.131.396-.044.396.22zM176.695 94.411c0 .264-.176.527-.396.658-.22.132-.396.044-.396-.219s.176-.526.396-.658c.22-.132.396-.044.396.22zM166.363 101.825c0 .263-.176.526-.396.658-.22.132-.396.044-.396-.22 0-.263.176-.526.396-.657.22-.132.396-.044.396.219zM167.726 102.44c0 .262-.176.526-.396.657-.22.132-.396.044-.396-.22 0-.262.176-.526.396-.657.22-.132.396-.044.396.22zM169.22 101.562c0 .263-.175.526-.395.658-.22.131-.396.044-.396-.22 0-.263.176-.526.396-.658.22-.131.395-.043.395.22zM170.715 100.684c0 .264-.175.527-.395.658-.22.132-.396.044-.396-.219s.176-.526.396-.658c.22-.132.395-.044.395.22zM172.21 99.807c0 .263-.176.526-.395.658-.22.132-.396.044-.396-.22 0-.262.176-.526.396-.657.22-.132.395-.044.395.22zM173.705 98.93c0 .263-.176.526-.396.658-.22.131-.395.044-.395-.22 0-.263.176-.526.395-.658.22-.131.396-.044.396.22zM175.2 98.052c0 .264-.176.527-.396.658-.22.132-.395.044-.395-.219s.175-.526.395-.658c.264-.132.396-.044.396.22zM176.739 97.175c0 .263-.176.526-.396.658-.22.132-.396.044-.396-.22 0-.263.176-.526.396-.657.22-.132.396-.044.396.219zM167.726 101.035c0 .264-.176.527-.396.658-.22.132-.396.044-.396-.219s.176-.526.396-.658c.22-.132.396 0 .396.22zM169.22 100.158c0 .263-.175.526-.395.658-.22.132-.396.044-.396-.22 0-.263.176-.526.396-.657.22-.132.395 0 .395.219zM170.715 99.28c0 .264-.175.527-.395.659-.22.131-.396.044-.396-.22 0-.263.176-.526.396-.658.22-.131.395 0 .395.22zM172.21 98.403c0 .263-.176.527-.395.658-.22.132-.396.044-.396-.219s.176-.526.396-.658c.22-.132.395 0 .395.22zM173.705 97.526c0 .263-.176.526-.396.658-.22.132-.395.044-.395-.22 0-.263.176-.526.395-.657.22-.132.396 0 .396.219zM175.2 96.649c0 .263-.176.526-.396.658-.22.131-.395.043-.395-.22s.175-.526.395-.658c.264-.131.396 0 .396.22zM176.739 95.771c0 .263-.176.527-.396.658-.22.132-.396.044-.396-.22 0-.262.176-.526.396-.657.22-.132.396 0 .396.22zM178.234 94.894c0 .263-.176.526-.396.658-.22.131-.396.044-.396-.22 0-.263.176-.526.396-.657.22-.132.396 0 .396.219z"/>
            </g>
            <g fill="#25EBEE" fill-rule="nonzero">
                <path d="M167.33 108.361c0 .264-.176.527-.396.658-.22.132-.395.044-.395-.219s.175-.526.395-.658c.22-.132.396-.044.396.22zM168.825 107.484c0 .263-.176.526-.396.658-.22.132-.396.044-.396-.22 0-.263.176-.526.396-.657.22-.132.396-.044.396.219zM170.32 106.607c0 .263-.176.526-.396.658-.22.131-.396.043-.396-.22s.176-.526.396-.658c.22-.131.396-.044.396.22zM171.815 105.73c0 .262-.176.526-.396.657-.22.132-.396.044-.396-.22 0-.262.176-.526.396-.657.22-.132.396-.044.396.22zM173.31 104.852c0 .263-.176.526-.396.658-.22.131-.396.044-.396-.22 0-.263.176-.526.396-.657.22-.132.395-.044.395.219zM174.848 103.975c0 .263-.176.526-.395.658-.22.131-.396.043-.396-.22s.176-.526.396-.658c.22-.131.395-.044.395.22zM176.343 103.097c0 .263-.176.527-.396.658-.22.132-.395.044-.395-.22 0-.262.176-.526.395-.657.22-.132.396-.044.396.22zM165.967 110.467c0 .263-.176.526-.396.658-.22.132-.395.044-.395-.22 0-.263.175-.526.395-.657.264-.132.396 0 .396.219zM167.33 111.081c0 .263-.176.527-.396.658-.22.132-.395.044-.395-.22 0-.262.175-.526.395-.657.22-.132.396 0 .396.22zM168.869 110.204c0 .263-.176.526-.396.658-.22.131-.396.044-.396-.22 0-.263.176-.526.396-.658.22-.131.396 0 .396.22zM170.364 109.326c0 .264-.176.527-.396.658-.22.132-.396.044-.396-.219s.176-.526.396-.658c.22-.132.396 0 .396.22zM171.859 108.449c0 .263-.176.526-.396.658-.22.132-.396.044-.396-.22 0-.262.176-.526.396-.657.22-.132.396 0 .396.219zM173.353 107.572c0 .263-.175.526-.395.658-.22.131-.396.044-.396-.22 0-.263.176-.526.396-.658.22-.131.395 0 .395.22zM174.848 106.694c0 .264-.176.527-.395.658-.22.132-.396.044-.396-.219s.176-.526.396-.658c.22-.132.395 0 .395.22zM176.343 105.817c0 .263-.176.526-.396.658-.22.132-.395.044-.395-.22 0-.263.176-.526.395-.657.22-.132.396 0 .396.219zM167.33 109.721c0 .263-.176.527-.396.658-.22.132-.395.044-.395-.22 0-.262.175-.526.395-.657.22-.132.396-.044.396.22zM168.869 108.844c0 .263-.176.526-.396.658-.22.131-.396.044-.396-.22 0-.263.176-.526.396-.657.22-.132.396-.044.396.219zM170.364 107.966c0 .264-.176.527-.396.659-.22.131-.396.043-.396-.22s.176-.526.396-.658c.22-.131.396-.044.396.22zM171.859 107.09c0 .262-.176.526-.396.657-.22.132-.396.044-.396-.22 0-.262.176-.526.396-.657.22-.132.396-.044.396.22zM173.353 106.212c0 .263-.175.526-.395.658-.22.131-.396.044-.396-.22 0-.263.176-.526.396-.658.22-.131.395-.043.395.22zM174.848 105.334c0 .264-.176.527-.395.658-.22.132-.396.044-.396-.219s.176-.526.396-.658c.22-.132.395-.044.395.22zM176.343 104.457c0 .263-.176.526-.396.658-.22.132-.395.044-.395-.22 0-.262.176-.526.395-.657.22-.132.396-.044.396.22zM177.882 103.58c0 .263-.176.526-.396.658-.22.131-.395.044-.395-.22 0-.263.175-.526.395-.658.22-.131.396-.044.396.22z"/>
            </g>
            <g fill="#25EBEE" fill-rule="nonzero">
                <path d="M166.934 117.003c0 .263-.176.527-.395.658-.22.132-.396.044-.396-.219s.176-.526.396-.658c.263-.132.395 0 .395.22zM168.473 116.126c0 .263-.176.526-.396.658-.22.132-.395.044-.395-.22 0-.263.176-.526.395-.657.22-.132.396 0 .396.219zM169.968 115.249c0 .263-.176.526-.396.658-.22.131-.395.043-.395-.22s.175-.526.395-.658c.22-.131.396 0 .396.22zM171.463 114.371c0 .263-.176.527-.396.658-.22.132-.396.044-.396-.22 0-.262.176-.526.396-.657.22-.132.396 0 .396.22zM172.958 113.494c0 .263-.176.526-.396.658-.22.131-.396.044-.396-.22 0-.263.176-.526.396-.657.22-.132.396 0 .396.219zM174.453 112.616c0 .264-.176.527-.396.659-.22.131-.396.043-.396-.22s.176-.526.396-.658c.22-.131.396 0 .396.22zM175.991 111.74c0 .262-.175.526-.395.657-.22.132-.396.044-.396-.22 0-.262.176-.526.396-.657.22-.132.395 0 .395.22zM165.615 119.153c0 .263-.176.526-.395.658-.22.131-.396.044-.396-.22 0-.263.176-.526.396-.658.22-.131.395-.043.395.22zM166.978 119.767c0 .263-.176.526-.396.658-.22.132-.395.044-.395-.22 0-.263.176-.526.395-.657.22-.132.396-.044.396.219zM168.473 118.89c0 .263-.176.526-.396.658-.22.131-.395.043-.395-.22s.176-.526.395-.658c.22-.131.396-.044.396.22zM169.968 118.012c0 .263-.176.527-.396.658-.22.132-.395.044-.395-.22 0-.262.175-.525.395-.657.22-.132.396-.044.396.22zM171.507 117.135c0 .263-.176.526-.396.658-.22.132-.396.044-.396-.22 0-.263.176-.526.396-.657.22-.132.396-.044.396.219zM173.002 116.258c0 .263-.176.526-.396.658-.22.131-.396.043-.396-.22s.176-.526.396-.658c.22-.131.396-.044.396.22zM174.497 115.38c0 .263-.176.527-.396.658-.22.132-.396.044-.396-.22 0-.262.176-.526.396-.657.22-.132.396-.044.396.22zM175.991 114.503c0 .263-.175.526-.395.658-.22.131-.396.044-.396-.22 0-.263.176-.526.396-.658.22-.131.395-.043.395.22zM166.978 118.407c0 .263-.176.526-.396.658-.22.132-.395.044-.395-.22 0-.262.176-.526.395-.657.22-.132.396-.044.396.219zM168.473 117.53c0 .263-.176.526-.396.658-.22.131-.395.044-.395-.22 0-.263.176-.526.395-.658.22-.131.396-.044.396.22zM169.968 116.652c0 .264-.176.527-.396.658-.22.132-.395.044-.395-.219s.175-.526.395-.658c.22-.132.396-.044.396.22zM171.507 115.775c0 .263-.176.526-.396.658-.22.132-.396.044-.396-.22 0-.263.176-.526.396-.657.22-.132.396-.044.396.219zM173.002 114.898c0 .263-.176.526-.396.658-.22.131-.396.044-.396-.22 0-.263.176-.526.396-.658.22-.131.396-.044.396.22zM174.497 114.02c0 .263-.176.527-.396.658-.22.132-.396.044-.396-.22 0-.262.176-.525.396-.657.22-.132.396-.044.396.22zM175.991 113.143c0 .263-.175.526-.395.658-.22.132-.396.044-.396-.22 0-.263.176-.526.396-.657.22-.132.395-.044.395.219zM177.486 112.266c0 .263-.176.526-.395.658-.22.131-.396.043-.396-.22s.176-.526.396-.658c.22-.131.395-.044.395.22z"/>
            </g>
            <g fill="#25EBEE" fill-rule="nonzero">
                <path d="M166.582 125.69c0 .262-.175.526-.395.657-.22.132-.396.044-.396-.22 0-.262.176-.526.396-.657.22-.132.395-.044.395.22zM168.077 124.812c0 .263-.176.526-.395.658-.22.131-.396.044-.396-.22 0-.263.176-.526.396-.658.22-.131.395-.043.395.22zM169.616 123.934c0 .264-.176.527-.396.658-.22.132-.395.044-.395-.219s.176-.526.395-.658c.22-.132.396-.044.396.22zM171.111 123.057c0 .263-.176.526-.396.658-.22.132-.395.044-.395-.22 0-.262.176-.526.395-.657.22-.132.396-.044.396.219zM172.606 122.18c0 .263-.176.526-.396.658-.22.131-.395.044-.395-.22 0-.263.175-.526.395-.658.22-.131.396-.044.396.22zM174.1 121.302c0 .264-.175.527-.395.658-.22.132-.396.044-.396-.219s.176-.526.396-.658c.22-.132.396-.044.396.22zM175.596 120.425c0 .263-.176.526-.396.658-.22.132-.396.044-.396-.22 0-.263.176-.526.396-.657.22-.132.396-.044.396.219zM165.263 127.839c0 .263-.175.526-.395.658-.22.131-.396.044-.396-.22 0-.263.176-.526.396-.658.22-.131.395-.044.395.22zM166.626 128.453c0 .263-.175.526-.395.658-.22.131-.396.044-.396-.22 0-.263.176-.526.396-.658.22-.131.395-.043.395.22zM168.121 127.575c0 .264-.176.527-.395.658-.22.132-.396.044-.396-.219s.176-.526.396-.658c.22-.132.395-.044.395.22zM169.616 126.698c0 .263-.176.526-.396.658-.22.132-.395.044-.395-.22 0-.262.176-.526.395-.657.22-.132.396-.044.396.22zM171.111 125.82c0 .264-.176.527-.396.659-.22.131-.395.044-.395-.22 0-.263.176-.526.395-.658.22-.131.396-.043.396.22zM172.65 124.943c0 .264-.176.527-.396.658-.22.132-.395.044-.395-.219s.175-.526.395-.658c.22-.132.396-.044.396.22zM174.145 124.066c0 .263-.176.526-.396.658-.22.132-.396.044-.396-.22 0-.263.176-.526.396-.657.22-.132.396-.044.396.219zM175.64 123.189c0 .263-.176.526-.396.658-.22.131-.396.044-.396-.22 0-.263.176-.526.396-.658.22-.131.396-.044.396.22zM166.626 127.049c0 .263-.175.526-.395.658-.22.132-.396.044-.396-.22 0-.263.176-.526.396-.657.22-.088.395 0 .395.219zM168.121 126.172c0 .263-.176.526-.395.658-.22.131-.396.044-.396-.22 0-.263.176-.526.396-.658.22-.087.395 0 .395.22zM169.616 125.294c0 .264-.176.527-.396.658-.22.132-.395.044-.395-.219s.176-.526.395-.658c.22-.088.396 0 .396.22zM171.111 124.417c0 .263-.176.526-.396.658-.22.132-.395.044-.395-.22 0-.263.176-.526.395-.657.22-.088.396 0 .396.219zM172.65 123.54c0 .263-.176.526-.396.658-.22.131-.395.043-.395-.22s.175-.526.395-.658c.22-.087.396 0 .396.22zM174.145 122.662c0 .263-.176.527-.396.658-.22.132-.396.044-.396-.22 0-.262.176-.526.396-.657.22-.088.396 0 .396.22zM175.64 121.785c0 .263-.176.526-.396.658-.22.131-.396.044-.396-.22 0-.263.176-.526.396-.657.22-.088.396 0 .396.219zM177.135 120.908c0 .263-.176.526-.396.658-.22.131-.396.043-.396-.22s.176-.526.396-.658c.22-.088.396 0 .396.22z"/>
            </g>
            <path fill="url(#j)" fill-rule="nonzero" stroke="#FFF" stroke-linecap="round" stroke-width=".5" d="M60.147 32.506l24.445-14.125-25.06-14.433-24.183 13.95z" transform="translate(88.717 53)"/>
            <path stroke="#25EBEE" stroke-linecap="round" stroke-linejoin="round" stroke-width=".5" d="M119.494 78.97l17.938 10.046"/>
            <path stroke="#105FCF" stroke-linecap="round" stroke-linejoin="round" stroke-width=".6" d="M139.499 90.42l6.375 3.553"/>
            <path stroke="#E6E6E6" stroke-linecap="round" stroke-linejoin="round" stroke-width=".6" d="M139.499 91.999l6.375 3.597M119.538 80.593l17.938 10.09"/>
            <g stroke-linecap="round" stroke-linejoin="round">
                <path stroke="#FFF" d="M119.406 85.506l26.116 14.389" opacity=".6"/>
                <path stroke="#25EBEE" stroke-width=".5" d="M119.274 87.13l17.939 10.089"/>
                <path stroke="#105FCF" stroke-width=".6" d="M139.279 98.579l6.375 3.597"/>
                <path stroke="#E6E6E6" stroke-width=".6" d="M139.279 100.202l6.331 3.553M119.274 88.796l17.983 10.09"/>
            </g>
            <g stroke-linecap="round" stroke-linejoin="round">
                <path stroke="#FFF" d="M119.626 92.876l26.116 14.432" opacity=".6"/>
                <path stroke="#25EBEE" stroke-width=".5" d="M119.494 94.543l17.938 10.09"/>
                <path stroke="#105FCF" stroke-width=".6" d="M139.499 105.992l6.375 3.554"/>
                <path stroke="#E6E6E6" stroke-width=".6" d="M139.499 107.616l6.375 3.553M119.538 96.166l17.938 10.134"/>
            </g>
            <g stroke-linecap="round" stroke-linejoin="round">
                <path stroke="#FFF" d="M119.406 100.202l26.116 14.432" opacity=".6"/>
                <path stroke="#25EBEE" stroke-width=".5" d="M119.274 101.869l17.939 10.09"/>
                <path stroke="#105FCF" stroke-width=".6" d="M139.279 113.318l6.375 3.554"/>
                <path stroke="#E6E6E6" stroke-width=".6" d="M139.279 114.898l6.331 3.597M119.274 103.492l17.983 10.133"/>
            </g>
            <g stroke-linecap="round" stroke-linejoin="round">
                <path stroke="#FFF" d="M119.406 107.308l26.116 14.433" opacity=".6"/>
                <path stroke="#25EBEE" stroke-width=".5" d="M119.274 108.975l17.939 10.046"/>
                <path stroke="#105FCF" stroke-width=".6" d="M139.279 120.425l6.375 3.553"/>
                <path stroke="#E6E6E6" stroke-width=".6" d="M139.279 122.004l6.331 3.597M119.274 110.599l17.983 10.09"/>
            </g>
            <g stroke-linecap="round" stroke-linejoin="round">
                <path stroke="#FFF" d="M119.406 114.854l26.116 14.432" opacity=".6"/>
                <path stroke="#25EBEE" stroke-width=".5" d="M119.274 116.52l17.939 10.046"/>
                <path stroke="#105FCF" stroke-width=".6" d="M139.279 127.97l6.375 3.554"/>
                <path stroke="#E6E6E6" stroke-width=".6" d="M139.279 129.55l6.331 3.597M119.274 118.144l17.983 10.09"/>
            </g>
            <path fill="url(#k)" fill-rule="nonzero" stroke="#FFF" stroke-width=".5" d="M110.753 102.256L70.39 78.962l34.734-20.047 40.01 23.074z" transform="translate(88.717 53)"/>
            <path fill="url(#l)" fill-rule="nonzero" stroke="#FFF" stroke-linecap="round" stroke-width=".5" d="M144.827 122.918l-33.898 19.521-.088-40.183 33.986-19.916z" transform="translate(88.717 53)"/>
            <path fill="url(#m)" fill-rule="nonzero" stroke="#FFF" stroke-linecap="round" stroke-width=".5" d="M110.84 142.483L70.7 119.277l-.308-40.14 40.362 23.163z" transform="translate(88.717 53)"/>
            <path fill="url(#n)" fill-rule="nonzero" stroke="#FFF" stroke-linecap="round" stroke-width=".5" d="M110.181 98.264L77.294 79.27l28.315-16.406 32.667 18.863z" transform="translate(88.717 53)"/>
            <path stroke="#FFF" stroke-linecap="round" stroke-linejoin="round" d="M159.152 141.57l40.186 22.24M233.324 145.21l-33.634 18.6M159.416 149.729l40.186 22.197M233.588 153.326l-33.679 18.6M159.416 158.151l40.186 22.198M233.588 161.792L199.91 180.35M159.416 165.609l40.186 22.197M233.588 169.206l-33.679 18.6" opacity=".6"/>
            <path fill="url(#o)" fill-rule="nonzero" stroke="#FFF" stroke-width=".5" d="M34.734 114.1l40.362-23.25-34.602-20.003L.308 93.877z" transform="translate(88.717 53)"/>
            <path fill="url(#p)" fill-rule="nonzero" stroke="#FFF" stroke-linecap="round" stroke-width=".5" d="M.747 134.762l33.899 19.521.088-40.226L.747 94.184z" transform="translate(88.717 53)"/>
            <path fill="url(#q)" fill-rule="nonzero" stroke="#FFF" stroke-linecap="round" stroke-width=".5" d="M34.646 154.283l40.142-23.206.308-40.183-40.362 23.163z" transform="translate(88.717 53)"/>
            <path stroke="#25EBEE" stroke-dasharray="3,5" stroke-linecap="round" stroke-linejoin="round" d="M158.14 152.975l-29.105 16.801M158.097 158.766L128.99 175.61M158.097 164.205l-29.106 16.802M157.35 170.083l-29.107 16.802M156.602 175.918l-29.106 16.845M155.81 181.796l-29.106 16.802" opacity=".5"/>
            <g stroke="#25EBEE" stroke-dasharray="3,5" stroke-linecap="round" stroke-linejoin="round" opacity=".5">
                <path d="M90.96 155.65l29.105 16.802M91.003 161.485l29.106 16.802M91.003 166.881l29.106 16.845M91.003 172.233l29.106 16.801M91.003 177.892l29.106 16.801M90.96 183.112l29.105 16.845"/>
            </g>
            <path fill="url(#r)" fill-rule="nonzero" stroke="#FFF" stroke-linecap="round" stroke-width=".5" d="M35.613 109.758l32.712-18.864-28.051-16.23L7.694 93.35z" transform="translate(88.717 53)"/>
            <g fill-rule="nonzero">
                <path fill="#F6C6B0" d="M217.188 195.878l-1.055 4.43c-.088.44-.615.527-.835.176l-1.1-1.799-1.055-5.395-1.319-.878.088 1.185.132 1.447.352 4.036s1.407 4.738 3.254 5.089c2.11.438 3.429-2.5 3.297-3.992-.132-1.492.616-6.624.616-6.624h-1.627l-.748 2.325"/>
                <path fill="#E6E6E6" d="M212.352 188.025l12.575-6.492v11.8l-12.575 6.932z"/>
                <path fill="#F7C6B6" d="M218.947 179.603s-.308 1.842-.66 3.421c-.307 1.58.66 3.642.66 3.642s.967.394 1.847.526v1.93h3.297l.88-4.738c-.044 0-1.979-7.018-6.024-4.781z"/>
                <path fill="#EF663A" d="M221.453 186.27s4.001 1.712 4.66-1.579c.66-3.29 2.155-9.475-3.297-9.256-5.452.22-4.484 3.817-4.484 3.817s1.143.526 1.45 1.798c.308 1.273.396 2.457.396 2.457s1.143-2.325 1.759-1.491c.571.833-.088 3.07-.088 3.07l-.396 1.185z"/>
                <path fill="#F6C6B0" d="M229.367 195.615s-1.319 9.08-2.55 9.914c-1.23.833.484-1.272.484-1.272l.571-10.441 1.495 1.799z"/>
                <path fill="#675F72" d="M223.168 228.647l-2.77-.263s-.572 1.842.747 2.413c1.275.57 5.189 2.5 4.925.79-.264-1.712-1.715-2.808-2.902-2.94z"/>
                <path fill="url(#s)" d="M15.432 35.314v.35L14.29 55.187s-2.022.482-2.638 0c-.66-.483-.571-21.1-.571-21.1l4.352 1.228z" transform="translate(211.824 175.391)"/>
                <path fill="#656273" d="M217.232 231.148s-2.506-1.01-2.638 0c-.132 1.009.264 1.93.264 1.93s2.462 1.71 3.693 1.579c1.231-.132 2.375-.921 1.407-1.535-.967-.702-.615-1.536-2.726-1.974z"/>
                <path fill="url(#t)" d="M10.244 34.743v.395L8.09 58.3s-1.803.395-2.462-.219c-.66-.614.264-24.785.264-24.785l4.352 1.447z" transform="translate(211.824 175.391)"/>
                <path fill="url(#u)" d="M12.53 12.327s5.145-.877 5.189 7.94h-1.143l-.44 14.564s-3.034 2.72-7.43 1.58c-1.627-.44-3.474-1.141-3.474-1.141L7.3 23.25s-2.77.263-3.386-.22c0 0-.132-4.342.264-5.702.22-.79 1.539-5.922 4.836-4.782 3.254 1.185 3.518-.22 3.518-.22z" transform="translate(211.824 175.391)"/>
            </g>
        </g>
        <g>
            <path fill="url(#v)" fill-rule="nonzero" stroke="#DFBBEC" stroke-width=".5" d="M23.52 8.38s7.914.087 20.68-8.16l5.07 2.588c.045.044.045.087 0 .131-.96.79-9.573 7.327-21.552 9.564 0 0-12.81 13.556-21.204 15.443L.35 23.822c-.044-.088 14.908-4.957 23.17-15.443z" transform="translate(38.878 1)"/>
            <path fill="url(#w)" fill-rule="nonzero" stroke="#DFBBEC" stroke-width=".5" d="M.219 23.822C.087 25.445.044 54.575 16.482 63.13c0 0-12.635-13.907-9.4-34.614 0-.044 0-.044-.043-.088.043 0-6.82-4.606-6.82-4.606z" transform="translate(38.878 1)"/>
            <path fill="url(#x)" fill-rule="nonzero" stroke="#DFBBEC" stroke-width=".5" d="M6.47 27.902s13.51-4.87 21.204-16.452c0 0 5.946.746 14.558-4.255C44.9 5.659 49.358 3.07 49.358 3.07s2.099 16.1-3.279 32.201c-5.42 16.1-12.372 25.007-12.372 25.007s-3.978 5.615-5.596 7.282c-.918.922-20.023-3.378-21.203-21.672-.7-10.617-.438-17.987-.438-17.987z" transform="translate(38.878 1)"/>
            <path stroke="#25EBEE" stroke-linecap="round" stroke-linejoin="round" stroke-width="1.5" d="M63.36 49.653l-6.295-4.036.175-.263 5.99 3.816 13.29-22.462-4.154 7.678z"/>
        </g>
        <g>
            <path fill="url(#y)" fill-rule="nonzero" stroke="#A57DCA" stroke-width=".5" d="M53.132 76.196l-4.732 2.66-7.423-46.258 12.155-7.273z" transform="translate(243.219 10)"/>
            <path fill="url(#z)" fill-rule="nonzero" stroke="#A57DCA" stroke-width=".5" d="M35.421 82.183l4.428-2.616.043-.045v-5.455c0-.044-.043-.044-.087-.044l-4.427 2.616-.044.045v5.455c.044.044.044.089.087.044z" transform="translate(243.219 10)"/>
            <path fill="url(#A)" fill-rule="nonzero" stroke="#DFBBEC" stroke-width=".5" d="M39.805 73.934l-23.31-13.75h-.087l-4.558 2.662c-.043.044-.043.089 0 .133l23.31 13.749h.088l4.557-2.661c.087-.044.087-.133 0-.133z" transform="translate(243.219 10)"/>
            <path fill="url(#B)" fill-rule="nonzero" d="M25.828 76.772L11.764 68.48c-.044 0-.044-.045-.044-.045v-5.366c0-.045.044-.089.13-.045l9.16 5.411c.043.045.13 0 .13-.044v-5.278c0-.044.043-.089.13-.044l4.558 2.66c.043 0 .043.045.043.045v5.411c0 .044 0 .044.044.044l9.333 5.544c.043 0 .043.045.043.045v5.366c0 .045-.043.089-.13.045l-9.333-5.456z" transform="translate(243.219 10)"/>
            <path fill="url(#C)" fill-rule="nonzero" d="M25.871 71.362l4.471-2.662v-5.544l-4.47 2.662z" transform="translate(243.219 10)"/>
            <path fill="url(#D)" fill-rule="nonzero" stroke="#DFBBEC" stroke-width=".5" d="M40.934 32.598L5.122 2.617 9.202.222l43.93 25.191z" transform="translate(243.219 10)"/>
            <path fill="url(#E)" fill-rule="nonzero" stroke="#DFBBEC" stroke-width=".5" d="M48.4 78.857L5.122 53.355V2.617L48.4 28.163z" transform="translate(243.219 10)"/>
            <path fill="url(#F)" fill-rule="nonzero" d="M53.436 105.911L.043 74.421v-62.58l53.393 31.49z" opacity=".44" transform="translate(243.219 10)"/>
            <path stroke="#25EBEE" stroke-linecap="round" stroke-linejoin="round" stroke-width="1.5" d="M248.862 59.363v14.814l14.672-20.934 1.91 27.764L277.815 63l3.473 7.717 9.81-6.342"/>
        </g>
        <g>
            <path fill="url(#G)" fill-rule="nonzero" stroke="#DFBBEC" stroke-width=".5" d="M39.91 78.206l4.752-2.693c2.508-1.412 4.004-4.06 4.004-6.929V47.488c-.088-7.37 0-14.652-13.244-21.67l-15.885-9.444-6.556-3.884s-7.92-2.118-11.22 4.37L4.4 58.124l35.509 20.08z" transform="translate(1 144)"/>
            <path fill="url(#H)" fill-rule="nonzero" stroke="#DFBBEC" stroke-width=".5" d="M35.378 33.586c.572.309 1.1.706 1.628 1.192 2.816 2.604 4.708 6.973 4.708 10.9v27.629c0 .573-.044 1.191-.132 1.72-.616 3.532-3.124 4.856-6.116 3.134-9.68-5.605-19.405-11.21-29.086-16.815a9.582 9.582 0 0 1-2.772-2.471C1.364 55.962.176 52.785.132 49.342c-.044-9.268 0-18.492 0-27.716 0-2.207.572-3.796 1.672-4.767 1.232-1.059 2.816-1.015 4.62.044 4.84 2.78 9.637 5.605 14.477 8.386 4.796 2.736 9.637 5.517 14.477 8.297zm-12.409 17.3c0-.132.044-.22.132-.264 1.1-.31 1.76-1.236 1.936-2.913.264-2.78-1.188-6.179-3.212-7.944-1.848-1.633-3.652-1.545-4.576.132-1.012 1.854-.484 5.164 1.188 7.768.044.044.088.132.132.176.264.265.264.53.264.883v5.782c0 1.412.66 2.912 1.716 3.795 1.1.927 2.244.486 2.42-.883.044-.176.044-.397.044-.617v-2.87c-.044-.97-.044-2.03-.044-3.044z" transform="translate(1 144)"/>
            <path stroke="#25EBEE" stroke-width="1.5" d="M23.97 195.151c0-.132.043-.22.131-.264 1.1-.31 1.76-1.236 1.936-2.913.264-2.78-1.188-6.179-3.212-7.944-1.848-1.633-3.652-1.545-4.576.132-1.012 1.854-.484 5.164 1.188 7.768.044.044.088.132.132.176.264.265.264.53.264.883v5.781c0 1.413.66 2.913 1.716 3.796 1.1.927 2.244.485 2.42-.883.044-.176.044-.397.044-.618v-2.868c-.044-1.015-.044-2.03-.044-3.046z"/>
            <path fill="url(#I)" fill-rule="nonzero" stroke="#DFBBEC" stroke-width=".5" d="M38.194 35.881l6.116-3.663S44.31.706 18.57.706l6.468 7.768 9.857 14.917 3.124 12.402c.044.088.132.132.176.088z" transform="translate(1 144)"/>
            <g fill-rule="nonzero" stroke="#DFBBEC" stroke-width=".5">
                <path fill="url(#J)" d="M11.66 2.736S6.645.618 8.185 10.24l-7.04 3.928S-1.276 2.648 2.64.574c3.872-2.03 9.02 2.162 9.02 2.162z" transform="translate(15.52 151.944)"/>
                <path fill="url(#K)" d="M8.096 10.372L1.1 14.167" transform="translate(15.52 151.944)"/>
            </g>
            <path fill="url(#L)" fill-rule="nonzero" stroke="#DFBBEC" stroke-width=".5" d="M23.233 1.721c-.352-.176-.704-.309-1.056-.485C20.593.53 19.097.22 17.645.265c-1.716.044-3.212.662-4.4 1.898-1.1 1.059-1.892 2.515-2.508 4.236-.616 1.81-1.013 3.84-1.189 6.047-.176 1.986-.132 4.06-.132 6.179l.044.044c2.069 1.191 4.137 2.339 6.249 3.53 0-1.897 0-3.265.044-4.413.132-2.471.484-4.678 1.408-6.355 1.1-1.986 2.772-2.604 5.016-1.766 1.452.53 2.86 1.369 4.268 2.648 1.848 1.678 3.256 3.928 4.269 6.665.704 1.853 1.1 3.707 1.32 5.56.22 1.678.308 3.266.308 4.811v2.56c2.244 1.28 4.048 2.383 5.456 3.928.044.088.176.044.22-.044.176-.486.616-1.457.528-4.414a42.812 42.812 0 0 0-1.98-12.048c-.792-2.472-1.804-4.9-3.124-7.15a29.817 29.817 0 0 0-4.84-6.355 24.802 24.802 0 0 0-3.653-3.001c-.088-.045-.132-.133-.22-.177a19.89 19.89 0 0 0-1.496-.927z" transform="translate(1 144)"/>
        </g>
    </g>
</svg>
