<?xml version="1.0" encoding="UTF-8"?>
<svg width="276px" height="374px" viewBox="0 0 276 374" version="1.1" xmlns="http://www.w3.org/2000/svg" xmlns:xlink="http://www.w3.org/1999/xlink">
    <!-- Generator: Sketch 52.1 (67048) - http://www.bohemiancoding.com/sketch -->
    <title>Group 31</title>
    <desc>Created with Sketch.</desc>
    <defs>
        <linearGradient x1="50%" y1="100%" x2="50%" y2="0%" id="linearGradient-1">
            <stop stop-color="#9A3339" offset="0%"></stop>
            <stop stop-color="#EC8C47" offset="100%"></stop>
        </linearGradient>
        <linearGradient x1="50%" y1="100%" x2="50%" y2="0%" id="linearGradient-2">
            <stop stop-color="#096F1F" offset="0%"></stop>
            <stop stop-color="#41D776" offset="100%"></stop>
        </linearGradient>
        <linearGradient x1="50%" y1="100%" x2="50%" y2="1.87409682%" id="linearGradient-3">
            <stop stop-color="#640B81" offset="0%"></stop>
            <stop stop-color="#C13FC9" offset="100%"></stop>
        </linearGradient>
    </defs>
    <g id="Home-Page" stroke="none" stroke-width="1" fill="none" fill-rule="evenodd">
        <g id="Contacts" transform="translate(-773.000000, -3530.000000)">
            <g id="Current-Openings" transform="translate(185.000000, 3414.000000)">
                <g id="Group-31" transform="translate(588.000000, 106.000000)">
                    <polyline id="Rectangle-5" fill="#49DBCE" transform="translate(220.000000, 291.000000) scale(-1, 1) rotate(90.000000) translate(-220.000000, -291.000000) " points="212 283 228 283 212 299"></polyline>
                    <polygon id="Rectangle-9" fill="#E5E5E5" fill-rule="nonzero" points="165 102 166 102 166 384 165 384"></polygon>
                    <g id="Group-23" transform="translate(53.000000, 0.000000)">
                        <g id="Group-30" transform="translate(0.000000, 8.000000)">
                            <g id="Dots" opacity="0.965904018" transform="translate(84.000000, 103.000000)" fill="#999999">
                                <circle id="Oval-Copy-99" cx="82.65" cy="82.65" r="1"></circle>
                                <circle id="Oval-Copy-98" cx="73.55" cy="82.65" r="1"></circle>
                                <circle id="Oval-Copy-97" cx="64.45" cy="82.65" r="1"></circle>
                                <circle id="Oval-Copy-96" cx="55.35" cy="82.65" r="1"></circle>
                                <circle id="Oval-Copy-95" cx="46.25" cy="82.65" r="1"></circle>
                                <circle id="Oval-Copy-94" cx="37.15" cy="82.65" r="1"></circle>
                                <circle id="Oval-Copy-93" cx="28.05" cy="82.65" r="1"></circle>
                                <circle id="Oval-Copy-92" cx="18.95" cy="82.65" r="1"></circle>
                                <circle id="Oval-Copy-91" cx="9.85" cy="82.65" r="1"></circle>
                                <circle id="Oval-Copy-90" cx="0.75" cy="82.65" r="1"></circle>
                                <circle id="Oval-Copy-89" cx="82.65" cy="73.55" r="1"></circle>
                                <circle id="Oval-Copy-88" cx="73.55" cy="73.55" r="1"></circle>
                                <circle id="Oval-Copy-87" cx="64.45" cy="73.55" r="1"></circle>
                                <circle id="Oval-Copy-86" cx="55.35" cy="73.55" r="1"></circle>
                                <circle id="Oval-Copy-85" cx="46.25" cy="73.55" r="1"></circle>
                                <circle id="Oval-Copy-84" cx="37.15" cy="73.55" r="1"></circle>
                                <circle id="Oval-Copy-83" cx="28.05" cy="73.55" r="1"></circle>
                                <circle id="Oval-Copy-82" cx="18.95" cy="73.55" r="1"></circle>
                                <circle id="Oval-Copy-81" cx="9.85" cy="73.55" r="1"></circle>
                                <circle id="Oval-Copy-80" cx="0.75" cy="73.55" r="1"></circle>
                                <circle id="Oval-Copy-79" cx="82.65" cy="64.45" r="1"></circle>
                                <circle id="Oval-Copy-78" cx="73.55" cy="64.45" r="1"></circle>
                                <circle id="Oval-Copy-77" cx="64.45" cy="64.45" r="1"></circle>
                                <circle id="Oval-Copy-76" cx="55.35" cy="64.45" r="1"></circle>
                                <circle id="Oval-Copy-75" cx="46.25" cy="64.45" r="1"></circle>
                                <circle id="Oval-Copy-74" cx="37.15" cy="64.45" r="1"></circle>
                                <circle id="Oval-Copy-73" cx="28.05" cy="64.45" r="1"></circle>
                                <circle id="Oval-Copy-72" cx="18.95" cy="64.45" r="1"></circle>
                                <circle id="Oval-Copy-71" cx="9.85" cy="64.45" r="1"></circle>
                                <circle id="Oval-Copy-70" cx="0.75" cy="64.45" r="1"></circle>
                                <circle id="Oval-Copy-69" cx="82.65" cy="55.35" r="1"></circle>
                                <circle id="Oval-Copy-68" cx="73.55" cy="55.35" r="1"></circle>
                                <circle id="Oval-Copy-67" cx="64.45" cy="55.35" r="1"></circle>
                                <circle id="Oval-Copy-66" cx="55.35" cy="55.35" r="1"></circle>
                                <circle id="Oval-Copy-65" cx="46.25" cy="55.35" r="1"></circle>
                                <circle id="Oval-Copy-64" cx="37.15" cy="55.35" r="1"></circle>
                                <circle id="Oval-Copy-63" cx="28.05" cy="55.35" r="1"></circle>
                                <circle id="Oval-Copy-62" cx="18.95" cy="55.35" r="1"></circle>
                                <circle id="Oval-Copy-61" cx="9.85" cy="55.35" r="1"></circle>
                                <circle id="Oval-Copy-60" cx="0.75" cy="55.35" r="1"></circle>
                                <circle id="Oval-Copy-59" cx="82.65" cy="46.25" r="1"></circle>
                                <circle id="Oval-Copy-58" cx="73.55" cy="46.25" r="1"></circle>
                                <circle id="Oval-Copy-57" cx="64.45" cy="46.25" r="1"></circle>
                                <circle id="Oval-Copy-56" cx="55.35" cy="46.25" r="1"></circle>
                                <circle id="Oval-Copy-55" cx="46.25" cy="46.25" r="1"></circle>
                                <circle id="Oval-Copy-54" cx="37.15" cy="46.25" r="1"></circle>
                                <circle id="Oval-Copy-53" cx="28.05" cy="46.25" r="1"></circle>
                                <circle id="Oval-Copy-52" cx="18.95" cy="46.25" r="1"></circle>
                                <circle id="Oval-Copy-51" cx="9.85" cy="46.25" r="1"></circle>
                                <circle id="Oval-Copy-50" cx="0.75" cy="46.25" r="1"></circle>
                                <circle id="Oval-Copy-49" cx="82.65" cy="37.15" r="1"></circle>
                                <circle id="Oval-Copy-48" cx="73.55" cy="37.15" r="1"></circle>
                                <circle id="Oval-Copy-47" cx="64.45" cy="37.15" r="1"></circle>
                                <circle id="Oval-Copy-46" cx="55.35" cy="37.15" r="1"></circle>
                                <circle id="Oval-Copy-45" cx="46.25" cy="37.15" r="1"></circle>
                                <circle id="Oval-Copy-44" cx="37.15" cy="37.15" r="1"></circle>
                                <circle id="Oval-Copy-43" cx="28.05" cy="37.15" r="1"></circle>
                                <circle id="Oval-Copy-42" cx="18.95" cy="37.15" r="1"></circle>
                                <circle id="Oval-Copy-41" cx="9.85" cy="37.15" r="1"></circle>
                                <circle id="Oval-Copy-40" cx="0.75" cy="37.15" r="1"></circle>
                                <circle id="Oval-Copy-39" cx="82.65" cy="28.05" r="1"></circle>
                                <circle id="Oval-Copy-38" cx="73.55" cy="28.05" r="1"></circle>
                                <circle id="Oval-Copy-37" cx="64.45" cy="28.05" r="1"></circle>
                                <circle id="Oval-Copy-36" cx="55.35" cy="28.05" r="1"></circle>
                                <circle id="Oval-Copy-35" cx="46.25" cy="28.05" r="1"></circle>
                                <circle id="Oval-Copy-34" cx="37.15" cy="28.05" r="1"></circle>
                                <circle id="Oval-Copy-33" cx="28.05" cy="28.05" r="1"></circle>
                                <circle id="Oval-Copy-32" cx="18.95" cy="28.05" r="1"></circle>
                                <circle id="Oval-Copy-31" cx="9.85" cy="28.05" r="1"></circle>
                                <circle id="Oval-Copy-30" cx="0.75" cy="28.05" r="1"></circle>
                                <circle id="Oval-Copy-29" cx="82.65" cy="18.95" r="1"></circle>
                                <circle id="Oval-Copy-28" cx="73.55" cy="18.95" r="1"></circle>
                                <circle id="Oval-Copy-27" cx="64.45" cy="18.95" r="1"></circle>
                                <circle id="Oval-Copy-26" cx="55.35" cy="18.95" r="1"></circle>
                                <circle id="Oval-Copy-25" cx="46.25" cy="18.95" r="1"></circle>
                                <circle id="Oval-Copy-24" cx="37.15" cy="18.95" r="1"></circle>
                                <circle id="Oval-Copy-23" cx="28.05" cy="18.95" r="1"></circle>
                                <circle id="Oval-Copy-22" cx="18.95" cy="18.95" r="1"></circle>
                                <circle id="Oval-Copy-21" cx="9.85" cy="18.95" r="1"></circle>
                                <circle id="Oval-Copy-20" cx="0.75" cy="18.95" r="1"></circle>
                                <circle id="Oval-Copy-19" cx="82.65" cy="9.85" r="1"></circle>
                                <circle id="Oval-Copy-18" cx="73.55" cy="9.85" r="1"></circle>
                                <circle id="Oval-Copy-17" cx="64.45" cy="9.85" r="1"></circle>
                                <circle id="Oval-Copy-16" cx="55.35" cy="9.85" r="1"></circle>
                                <circle id="Oval-Copy-15" cx="46.25" cy="9.85" r="1"></circle>
                                <circle id="Oval-Copy-14" cx="37.15" cy="9.85" r="1"></circle>
                                <circle id="Oval-Copy-13" cx="28.05" cy="9.85" r="1"></circle>
                                <circle id="Oval-Copy-12" cx="18.95" cy="9.85" r="1"></circle>
                                <circle id="Oval-Copy-11" cx="9.85" cy="9.85" r="1"></circle>
                                <circle id="Oval-Copy-10" cx="0.75" cy="9.85" r="1"></circle>
                                <circle id="Oval-Copy-9" cx="82.65" cy="0.75" r="1"></circle>
                                <circle id="Oval-Copy-8" cx="73.55" cy="0.75" r="1"></circle>
                                <circle id="Oval-Copy-7" cx="64.45" cy="0.75" r="1"></circle>
                                <circle id="Oval-Copy-6" cx="55.35" cy="0.75" r="1"></circle>
                                <circle id="Oval-Copy-5" cx="46.25" cy="0.75" r="1"></circle>
                                <circle id="Oval-Copy-4" cx="37.15" cy="0.75" r="1"></circle>
                                <circle id="Oval-Copy-3" cx="28.05" cy="0.75" r="1"></circle>
                                <circle id="Oval-Copy-2" cx="18.95" cy="0.75" r="1"></circle>
                                <circle id="Oval-Copy" cx="9.85" cy="0.75" r="1"></circle>
                                <circle id="Oval" cx="0.75" cy="0.75" r="1"></circle>
                            </g>
                            <g id="Group-22" fill-rule="nonzero">
                                <rect id="Rectangle-38" fill="#E5E5E5" transform="translate(98.994949, 106.994949) rotate(45.000000) translate(-98.994949, -106.994949) " x="98.4949494" y="-32.5050506" width="1" height="279"></rect>
                                <polygon id="Triangle-2" fill="#49DBCE" transform="translate(197.656854, 7.656854) scale(-1, 1) rotate(-45.000000) translate(-197.656854, -7.656854) " points="197.656854 3.65685425 201.656854 11.6568542 193.656854 11.6568542"></polygon>
                                <rect id="Rectangle-38-Copy" fill="#E5E5E5" transform="translate(122.994949, 102.994949) rotate(45.000000) translate(-122.994949, -102.994949) " x="122.494949" y="-36.5050506" width="1" height="279"></rect>
                                <polygon id="Triangle-2" fill="#49DBCE" transform="translate(219.656854, 5.656854) scale(-1, 1) rotate(-45.000000) translate(-219.656854, -5.656854) " points="219.656854 1.65685425 223.656854 9.65685425 215.656854 9.65685425"></polygon>
                                <rect id="Rectangle-12" fill="#49DBCE" x="46" y="39" width="67" height="121"></rect>
                                <rect id="Rectangle-13" fill="#FFFFFF" x="24" y="140" width="43" height="43"></rect>
                                <rect id="Rectangle-13-Copy" fill="#49DBCE" x="15" y="169" width="21" height="21"></rect>
                                <circle id="Oval-10" fill="#49DBCE" cx="111.5" cy="84.5" r="45.5"></circle>
                                <path d="M111.5,130 C111.216188,103.49775 111.39637,67.8162798 111.5,39 C86.3710439,39 66,59.3710439 66,84.5 C66,109.628956 86.3710439,130 111.5,130 Z" id="Oval-10" fill="#FFFFFF"></path>
                            </g>
                        </g>
                    </g>
                    <g id="Group-9" transform="translate(0.000000, 226.000000)">
                        <ellipse id="Oval-5" fill="url(#linearGradient-1)" cx="50.1818182" cy="49.7922078" rx="4.18181818" ry="4.20779221"></ellipse>
                        <ellipse id="Oval-5" fill="url(#linearGradient-2)" cx="88.5151515" cy="28.0519481" rx="3.48484848" ry="3.50649351"></ellipse>
                        <ellipse id="Oval-5" fill="url(#linearGradient-3)" cx="2.43939394" cy="2.45454545" rx="2.43939394" ry="2.45454545"></ellipse>
                    </g>
                </g>
            </g>
        </g>
    </g>
</svg>