<?xml version="1.0" encoding="UTF-8"?>
<svg width="339px" height="364px" viewBox="0 0 339 364" version="1.1" xmlns="http://www.w3.org/2000/svg" xmlns:xlink="http://www.w3.org/1999/xlink">
    <!-- Generator: Sketch 52.1 (67048) - http://www.bohemiancoding.com/sketch -->
    <title>Group 37</title>
    <desc>Created with Sketch.</desc>
    <g id="Page-1" stroke="none" stroke-width="1" fill="none" fill-rule="evenodd">
        <g id="Contacts" transform="translate(-783.000000, -5711.000000)">
            <g id="Group-27" transform="translate(780.000000, 5709.000000)">
                <g id="Group-26" transform="translate(176.000000, 316.500000) scale(-1, 1) translate(-176.000000, -316.500000) ">
                    <g id="Group-37" transform="translate(10.000000, 0.000000)">
                        <rect id="Rectangle-8" fill="#E5E5E5" fill-rule="nonzero" transform="translate(166.877200, 174.877200) rotate(45.000000) translate(-166.877200, -174.877200) " x="166.3772" y="-60.6227996" width="1" height="471"></rect>
                        <polygon id="Triangle-2" fill="#49DBCE" fill-rule="nonzero" transform="translate(335.656854, 5.656854) scale(-1, 1) rotate(-45.000000) translate(-335.656854, -5.656854) " points="335.656854 1.65685425 339.656854 9.65685425 331.656854 9.65685425"></polygon>
                        <polygon id="Triangle-2" fill="#49DBCE" fill-rule="nonzero" transform="translate(335.656854, 30.656854) scale(-1, 1) rotate(-45.000000) translate(-335.656854, -30.656854) " points="335.656854 26.6568542 339.656854 34.6568542 331.656854 34.6568542"></polygon>
                        <rect id="Rectangle-8" fill="#E5E5E5" fill-rule="nonzero" transform="translate(166.877200, 198.877200) rotate(45.000000) translate(-166.877200, -198.877200) " x="166.3772" y="-36.6227996" width="1" height="471"></rect>
                        <polyline id="Rectangle-5" fill="#49DBCE" transform="translate(9.000000, 333.000000) rotate(90.000000) translate(-9.000000, -333.000000) " points="1 325 17 325 1 341"></polyline>
                    </g>
                </g>
            </g>
        </g>
    </g>
</svg>