<svg xmlns="http://www.w3.org/2000/svg" width="107" height="20" viewBox="0 0 107 20">
    <g fill="#FFF" fill-rule="nonzero">
        <path d="M106.537 9.114a1.413 1.413 0 0 0-.109-.124l-7.63-7.676.156.157L97 3.435l-.025.026 6.518 6.554-6.506 6.54 1.97 1.98 7.502-7.522a1.413 1.413 0 0 0 .078-1.9zM73.495 9.997l6.503-6.539-1.976-1.987.755-.76.038-.035-8.23 8.266a1.525 1.525 0 0 0-.043 2.068l7.482 7.524 1.98-1.99-6.509-6.547z"/>
        <path d="M90.467 10.003l-1.98-1.99-7.27-7.307a1.715 1.715 0 0 0-2.4-.035l-.037.035-.756.76 1.977 1.987L86.104 9.6l3.121 3.137 6.546 6.582c.063.063.132.12.204.172l.033.023a1.66 1.66 0 0 0 2.1-.236c.201-.197.836-.759.836-.759l-1.97-1.98-6.507-6.536zM96.972 3.46l.025-.025 1.947-1.964-.157-.157-.586-.592-.02-.018a1.735 1.735 0 0 0-2.45.015l-6.823 6.876a.18.18 0 0 0 0 .253l1.727 1.732c.07.07.182.07.252 0l6.085-6.12zM80.003 16.542l-1.979 1.99.756.76.022.02a1.723 1.723 0 0 0 2.412-.02l6.853-6.887a.18.18 0 0 0 0-.253l-1.727-1.737a.178.178 0 0 0-.252 0l-6.085 6.127zM.06 2.732a.409.409 0 0 1 .406-.41h4.879a4.776 4.776 0 0 1 4.42 2.289 4.833 4.833 0 0 1 .01 5 4.776 4.776 0 0 1-4.41 2.308h-3.1v5.063a.422.422 0 0 1-.407.41H.466a.404.404 0 0 1-.406-.41V2.732zM5.22 9.82a2.72 2.72 0 0 0 1.927-.81 2.75 2.75 0 0 0 .791-1.944c0-1.463-1.241-2.582-2.719-2.582H2.266v5.329l2.953.007zM12.336 15.213c.194-.279.366-.603.557-.884.191-.28.503-.364.727-.172.129.106 1.778 1.486 3.424 1.486 1.478 0 2.42-.904 2.42-2.002 0-1.292-1.113-2.11-3.233-2.993-2.183-.926-3.895-2.066-3.895-4.557 0-1.678 1.284-3.982 4.688-3.982a7.223 7.223 0 0 1 3.96 1.266.506.506 0 0 1 .129.731c-.171.253-.365.56-.536.818a.504.504 0 0 1-.756.215c-.148-.086-1.649-1.076-2.89-1.076-1.797 0-2.42 1.142-2.42 1.937 0 1.228.942 1.98 2.72 2.711 2.482 1.013 4.602 2.195 4.602 4.81 0 2.238-1.991 4.069-4.783 4.069a6.908 6.908 0 0 1-4.603-1.699c-.168-.162-.317-.311-.11-.678zM28.266 10.127l-5.008-7.18a.4.4 0 0 1-.023-.42.395.395 0 0 1 .365-.205h1.576a.425.425 0 0 1 .343.194l3.875 5.49 3.874-5.49a.46.46 0 0 1 .343-.194h1.606a.395.395 0 0 1 .365.205.4.4 0 0 1-.023.42l-5.068 7.167v6.863a.422.422 0 0 1-.408.41h-1.412a.404.404 0 0 1-.408-.41l.003-6.85zM44.53 2.106c2.162 0 3.723.732 5.178 2.003a.4.4 0 0 1 .02.602l-.941.97c-.149.195-.342.195-.534 0a5.773 5.773 0 0 0-3.69-1.443c-3.062 0-5.373 2.582-5.373 5.595s2.334 5.57 5.392 5.57c1.564 0 2.654-.626 3.681-1.42a.389.389 0 0 1 .504-.021l.984.975a.411.411 0 0 1-.022.58 7.322 7.322 0 0 1-5.202 2.088c-4.255 0-7.704-3.468-7.704-7.747 0-4.278 3.45-7.747 7.704-7.747l.003-.005zM53.324 2.732a.422.422 0 0 1 .405-.41h1.407a.404.404 0 0 1 .406.41v6.005h7.832V2.732a.409.409 0 0 1 .406-.41h1.427a.422.422 0 0 1 .405.41v14.245a.422.422 0 0 1-.405.41h-1.412a.404.404 0 0 1-.406-.41V10.76h-7.84v6.218a.409.409 0 0 1-.413.41h-1.412a.422.422 0 0 1-.405-.41l.005-14.245z"/>
    </g>
</svg>
