<?xml version="1.0" encoding="UTF-8"?>
<svg width="110px" height="106px" viewBox="0 0 110 106" version="1.1" xmlns="http://www.w3.org/2000/svg" xmlns:xlink="http://www.w3.org/1999/xlink">
    <!-- Generator: Sketch 52.1 (67048) - http://www.bohemiancoding.com/sketch -->
    <title>Group 35</title>
    <desc>Created with Sketch.</desc>
    <g id="Page-1" stroke="none" stroke-width="1" fill="none" fill-rule="evenodd">
        <g id="Contacts" transform="translate(-446.000000, -2185.000000)">
            <g id="Contact-Imf" transform="translate(54.000000, 898.000000)">
                <g id="Group-3" transform="translate(373.000000, 757.000000)">
                    <g id="Group-35" transform="translate(19.000000, 530.000000)">
                        <circle id="Oval-10" fill="#49DBCE" fill-rule="nonzero" cx="57" cy="53" r="53"></circle>
                        <g id="Dots" opacity="0.965904018" transform="translate(0.000000, 4.000000)" fill="#999999">
                            <circle id="Oval-Copy-99" cx="82.65" cy="82.65" r="1"></circle>
                            <circle id="Oval-Copy-98" cx="73.55" cy="82.65" r="1"></circle>
                            <circle id="Oval-Copy-97" cx="64.45" cy="82.65" r="1"></circle>
                            <circle id="Oval-Copy-96" cx="55.35" cy="82.65" r="1"></circle>
                            <circle id="Oval-Copy-95" cx="46.25" cy="82.65" r="1"></circle>
                            <circle id="Oval-Copy-94" cx="37.15" cy="82.65" r="1"></circle>
                            <circle id="Oval-Copy-93" cx="28.05" cy="82.65" r="1"></circle>
                            <circle id="Oval-Copy-92" cx="18.95" cy="82.65" r="1"></circle>
                            <circle id="Oval-Copy-91" cx="9.85" cy="82.65" r="1"></circle>
                            <circle id="Oval-Copy-90" cx="0.75" cy="82.65" r="1"></circle>
                            <circle id="Oval-Copy-89" cx="82.65" cy="73.55" r="1"></circle>
                            <circle id="Oval-Copy-88" cx="73.55" cy="73.55" r="1"></circle>
                            <circle id="Oval-Copy-87" cx="64.45" cy="73.55" r="1"></circle>
                            <circle id="Oval-Copy-86" cx="55.35" cy="73.55" r="1"></circle>
                            <circle id="Oval-Copy-85" cx="46.25" cy="73.55" r="1"></circle>
                            <circle id="Oval-Copy-84" cx="37.15" cy="73.55" r="1"></circle>
                            <circle id="Oval-Copy-83" cx="28.05" cy="73.55" r="1"></circle>
                            <circle id="Oval-Copy-82" cx="18.95" cy="73.55" r="1"></circle>
                            <circle id="Oval-Copy-81" cx="9.85" cy="73.55" r="1"></circle>
                            <circle id="Oval-Copy-80" cx="0.75" cy="73.55" r="1"></circle>
                            <circle id="Oval-Copy-79" cx="82.65" cy="64.45" r="1"></circle>
                            <circle id="Oval-Copy-78" cx="73.55" cy="64.45" r="1"></circle>
                            <circle id="Oval-Copy-77" cx="64.45" cy="64.45" r="1"></circle>
                            <circle id="Oval-Copy-76" cx="55.35" cy="64.45" r="1"></circle>
                            <circle id="Oval-Copy-75" cx="46.25" cy="64.45" r="1"></circle>
                            <circle id="Oval-Copy-74" cx="37.15" cy="64.45" r="1"></circle>
                            <circle id="Oval-Copy-73" cx="28.05" cy="64.45" r="1"></circle>
                            <circle id="Oval-Copy-72" cx="18.95" cy="64.45" r="1"></circle>
                            <circle id="Oval-Copy-71" cx="9.85" cy="64.45" r="1"></circle>
                            <circle id="Oval-Copy-70" cx="0.75" cy="64.45" r="1"></circle>
                            <circle id="Oval-Copy-69" cx="82.65" cy="55.35" r="1"></circle>
                            <circle id="Oval-Copy-68" cx="73.55" cy="55.35" r="1"></circle>
                            <circle id="Oval-Copy-67" cx="64.45" cy="55.35" r="1"></circle>
                            <circle id="Oval-Copy-66" cx="55.35" cy="55.35" r="1"></circle>
                            <circle id="Oval-Copy-65" cx="46.25" cy="55.35" r="1"></circle>
                            <circle id="Oval-Copy-64" cx="37.15" cy="55.35" r="1"></circle>
                            <circle id="Oval-Copy-63" cx="28.05" cy="55.35" r="1"></circle>
                            <circle id="Oval-Copy-62" cx="18.95" cy="55.35" r="1"></circle>
                            <circle id="Oval-Copy-61" cx="9.85" cy="55.35" r="1"></circle>
                            <circle id="Oval-Copy-60" cx="0.75" cy="55.35" r="1"></circle>
                            <circle id="Oval-Copy-59" cx="82.65" cy="46.25" r="1"></circle>
                            <circle id="Oval-Copy-58" cx="73.55" cy="46.25" r="1"></circle>
                            <circle id="Oval-Copy-57" cx="64.45" cy="46.25" r="1"></circle>
                            <circle id="Oval-Copy-56" cx="55.35" cy="46.25" r="1"></circle>
                            <circle id="Oval-Copy-55" cx="46.25" cy="46.25" r="1"></circle>
                            <circle id="Oval-Copy-54" cx="37.15" cy="46.25" r="1"></circle>
                            <circle id="Oval-Copy-53" cx="28.05" cy="46.25" r="1"></circle>
                            <circle id="Oval-Copy-52" cx="18.95" cy="46.25" r="1"></circle>
                            <circle id="Oval-Copy-51" cx="9.85" cy="46.25" r="1"></circle>
                            <circle id="Oval-Copy-50" cx="0.75" cy="46.25" r="1"></circle>
                            <circle id="Oval-Copy-49" cx="82.65" cy="37.15" r="1"></circle>
                            <circle id="Oval-Copy-48" cx="73.55" cy="37.15" r="1"></circle>
                            <circle id="Oval-Copy-47" cx="64.45" cy="37.15" r="1"></circle>
                            <circle id="Oval-Copy-46" cx="55.35" cy="37.15" r="1"></circle>
                            <circle id="Oval-Copy-45" cx="46.25" cy="37.15" r="1"></circle>
                            <circle id="Oval-Copy-44" cx="37.15" cy="37.15" r="1"></circle>
                            <circle id="Oval-Copy-43" cx="28.05" cy="37.15" r="1"></circle>
                            <circle id="Oval-Copy-42" cx="18.95" cy="37.15" r="1"></circle>
                            <circle id="Oval-Copy-41" cx="9.85" cy="37.15" r="1"></circle>
                            <circle id="Oval-Copy-40" cx="0.75" cy="37.15" r="1"></circle>
                            <circle id="Oval-Copy-39" cx="82.65" cy="28.05" r="1"></circle>
                            <circle id="Oval-Copy-38" cx="73.55" cy="28.05" r="1"></circle>
                            <circle id="Oval-Copy-37" cx="64.45" cy="28.05" r="1"></circle>
                            <circle id="Oval-Copy-36" cx="55.35" cy="28.05" r="1"></circle>
                            <circle id="Oval-Copy-35" cx="46.25" cy="28.05" r="1"></circle>
                            <circle id="Oval-Copy-34" cx="37.15" cy="28.05" r="1"></circle>
                            <circle id="Oval-Copy-33" cx="28.05" cy="28.05" r="1"></circle>
                            <circle id="Oval-Copy-32" cx="18.95" cy="28.05" r="1"></circle>
                            <circle id="Oval-Copy-31" cx="9.85" cy="28.05" r="1"></circle>
                            <circle id="Oval-Copy-30" cx="0.75" cy="28.05" r="1"></circle>
                            <circle id="Oval-Copy-29" cx="82.65" cy="18.95" r="1"></circle>
                            <circle id="Oval-Copy-28" cx="73.55" cy="18.95" r="1"></circle>
                            <circle id="Oval-Copy-27" cx="64.45" cy="18.95" r="1"></circle>
                            <circle id="Oval-Copy-26" cx="55.35" cy="18.95" r="1"></circle>
                            <circle id="Oval-Copy-25" cx="46.25" cy="18.95" r="1"></circle>
                            <circle id="Oval-Copy-24" cx="37.15" cy="18.95" r="1"></circle>
                            <circle id="Oval-Copy-23" cx="28.05" cy="18.95" r="1"></circle>
                            <circle id="Oval-Copy-22" cx="18.95" cy="18.95" r="1"></circle>
                            <circle id="Oval-Copy-21" cx="9.85" cy="18.95" r="1"></circle>
                            <circle id="Oval-Copy-20" cx="0.75" cy="18.95" r="1"></circle>
                            <circle id="Oval-Copy-19" cx="82.65" cy="9.85" r="1"></circle>
                            <circle id="Oval-Copy-18" cx="73.55" cy="9.85" r="1"></circle>
                            <circle id="Oval-Copy-17" cx="64.45" cy="9.85" r="1"></circle>
                            <circle id="Oval-Copy-16" cx="55.35" cy="9.85" r="1"></circle>
                            <circle id="Oval-Copy-15" cx="46.25" cy="9.85" r="1"></circle>
                            <circle id="Oval-Copy-14" cx="37.15" cy="9.85" r="1"></circle>
                            <circle id="Oval-Copy-13" cx="28.05" cy="9.85" r="1"></circle>
                            <circle id="Oval-Copy-12" cx="18.95" cy="9.85" r="1"></circle>
                            <circle id="Oval-Copy-11" cx="9.85" cy="9.85" r="1"></circle>
                            <circle id="Oval-Copy-10" cx="0.75" cy="9.85" r="1"></circle>
                            <circle id="Oval-Copy-9" cx="82.65" cy="0.75" r="1"></circle>
                            <circle id="Oval-Copy-8" cx="73.55" cy="0.75" r="1"></circle>
                            <circle id="Oval-Copy-7" cx="64.45" cy="0.75" r="1"></circle>
                            <circle id="Oval-Copy-6" cx="55.35" cy="0.75" r="1"></circle>
                            <circle id="Oval-Copy-5" cx="46.25" cy="0.75" r="1"></circle>
                            <circle id="Oval-Copy-4" cx="37.15" cy="0.75" r="1"></circle>
                            <circle id="Oval-Copy-3" cx="28.05" cy="0.75" r="1"></circle>
                            <circle id="Oval-Copy-2" cx="18.95" cy="0.75" r="1"></circle>
                            <circle id="Oval-Copy" cx="9.85" cy="0.75" r="1"></circle>
                            <circle id="Oval" cx="0.75" cy="0.75" r="1"></circle>
                        </g>
                    </g>
                </g>
            </g>
        </g>
    </g>
</svg>